<svg width="42" height="46" viewBox="0 0 42 46" fill="none" xmlns="http://www.w3.org/2000/svg">
<path d="M12.25 0.571289H29.75C36.4166 0.571289 41.8333 6.3595 41.8333 13.4834V32.1838C41.8333 35.6083 40.5602 38.8926 38.2942 41.3141C36.0281 43.7356 32.9547 45.096 29.75 45.096H12.25C5.58329 45.096 0.166626 39.3078 0.166626 32.1838V13.4834C0.166626 10.0589 1.43969 6.77467 3.70575 4.35317C5.97182 1.93167 9.04526 0.571289 12.25 0.571289ZM11.8333 5.02376C9.84417 5.02376 7.93652 5.86813 6.52999 7.37113C5.12347 8.87413 4.33329 10.9126 4.33329 13.0382V32.6291C4.33329 37.0593 7.68746 40.6435 11.8333 40.6435H30.1666C32.1558 40.6435 34.0634 39.7991 35.4699 38.2961C36.8765 36.7931 37.6666 34.7546 37.6666 32.6291V13.0382C37.6666 8.60799 34.3125 5.02376 30.1666 5.02376H11.8333ZM31.9375 8.36311C32.6281 8.36311 33.2905 8.65629 33.7789 9.17817C34.2673 9.70004 34.5416 10.4079 34.5416 11.1459C34.5416 11.8839 34.2673 12.5918 33.7789 13.1136C33.2905 13.6355 32.6281 13.9287 31.9375 13.9287C31.2468 13.9287 30.5844 13.6355 30.096 13.1136C29.6077 12.5918 29.3333 11.8839 29.3333 11.1459C29.3333 10.4079 29.6077 9.70004 30.096 9.17817C30.5844 8.65629 31.2468 8.36311 31.9375 8.36311ZM21 11.7025C23.7626 11.7025 26.4122 12.8752 28.3657 14.9627C30.3192 17.0502 31.4166 19.8815 31.4166 22.8336C31.4166 25.7858 30.3192 28.617 28.3657 30.7045C26.4122 32.792 23.7626 33.9648 21 33.9648C18.2373 33.9648 15.5878 32.792 13.6343 30.7045C11.6808 28.617 10.5833 25.7858 10.5833 22.8336C10.5833 19.8815 11.6808 17.0502 13.6343 14.9627C15.5878 12.8752 18.2373 11.7025 21 11.7025ZM21 16.1549C19.3424 16.1549 17.7526 16.8586 16.5805 18.1111C15.4084 19.3636 14.75 21.0623 14.75 22.8336C14.75 24.6049 15.4084 26.3037 16.5805 27.5562C17.7526 28.8087 19.3424 29.5123 21 29.5123C22.6576 29.5123 24.2473 28.8087 25.4194 27.5562C26.5915 26.3037 27.25 24.6049 27.25 22.8336C27.25 21.0623 26.5915 19.3636 25.4194 18.1111C24.2473 16.8586 22.6576 16.1549 21 16.1549Z" fill="white"/>
</svg>
